<?xml version="1.0" encoding="UTF-8"?>
<svg id="Layer_1" data-name="Layer 1" xmlns="http://www.w3.org/2000/svg" xmlns:xlink="http://www.w3.org/1999/xlink" viewBox="0 0 128.53 127.49">
  <defs>
    <style>
      .cls-1 {
        fill: none;
      }

      .cls-2 {
        fill: url(#linear-gradient);
      }

      .cls-3 {
        fill: #eff;
      }

      .cls-4 {
        fill: #215bd1;
      }

      .cls-5 {
        fill: #0789f3;
      }

      .cls-6 {
        fill: #09a8f1;
      }

      .cls-7 {
        fill: #27e9ed;
      }
    </style>
    <linearGradient id="linear-gradient" x1="27.4" y1="84.74" x2="28.82" y2="84.74" gradientUnits="userSpaceOnUse">
      <stop offset="0" stop-color="#2b4297"/>
      <stop offset="1" stop-color="#ab237b"/>
    </linearGradient>
  </defs>
  <path class="cls-5" d="M90.02,55.7c-9.89-5.01-27.9-8.09-39.11-15.88-5.22-3.63-5.07-11.44-5.86-16.35-.69-4.27-1.81-5.61,.45-9.33l-16.45,19.25c-.63,.77-1.2,1.58-1.69,2.42-8.47,14.38-4.68,19.64,6.55,27.45,11.21,7.79,31.22,10.87,41.11,15.88,8.65,4.38,12.95,11.63,14.68,17.9,1.21,4.38,2.68,10.75,.33,14.5l12.23-21.11c1.02-1.12,1.84-3.31,2.47-4.57,4.53-9.01-.68-23.05-14.72-30.15Z"/>
  <path class="cls-2" d="M27.4,85.75l1.41-2.02c-.52,.65-.99,1.33-1.41,2.02Z"/>
  <g>
    <polygon class="cls-5" points="32.71 76.78 32.46 80.19 29.4 85.32 23.81 84.89 32.71 76.78"/>
    <path class="cls-5" d="M81.16,98.99c-27.74,3.42-52.43-16.1-52.43-16.1l3.98-6.1-29.71-3.46,5.77,32.06,3.96-5.06s25.69,21.53,53.43,18.1c10.03-1.24,16.49-4.25,19.57-9.4v-.98s15.07-16.87,15.07-16.87c0,0-8.77,5.45-13.56,6.61-.97,.34-3.87,.94-6.07,1.21Z"/>
    <g>
      <path class="cls-5" d="M28.73,82.89l3.98-6.1-29.71-3.46,5.77,32.06,3.96-5.06s17.62,14.75,39.44,17.88l15.91-19.17c-21.97-2.41-39.35-16.14-39.35-16.14Z"/>
      <path class="cls-4" d="M87.23,97.78c-.97,.34-3.87,.94-6.07,1.21-4.47,.55-8.86,.5-13.09,.04l-15.91,19.17c4.53,.65,9.23,.81,14,.22,3.82-.47,11.12-1.2,13.91-2.21"/>
    </g>
  </g>
  <path class="cls-5" d="M128.53,39.73l-9.21-31.33-5.29,5.69S91.04-.16,66.61,0c-10.26,.07-22.23,5.24-28.17,12.86-.51,.66-17.49,28.24-17.49,28.24,2.59-3.14,11.92-12.6,16.62-13.89,3.23-.88,6.92-1.21,11.03-.78,27.28,2.85,50.42,10.08,50.42,10.08l-5.63,5.89,35.13-2.68Z"/>
  <g>
    <path class="cls-4" d="M47.21,35.76c-.81,.14-1.61,.3-2.4,.49-15.13,3.77-21.57,18.24-6.52,27.48l1.68-.34,14.45-21.41c-1.22-.68-2.4-1.39-3.51-2.16,0,0,0,0,0,0-.29-.2-.55-.4-.81-.61-.08-.06-.15-.12-.22-.18-.19-.16-.38-.33-.55-.5-.08-.08-.17-.16-.25-.24-.16-.16-.31-.32-.45-.48-.1-.11-.2-.23-.29-.34-.07-.08-.13-.17-.2-.25-.36-.47-.66-.94-.92-1.43,0,0,0,0,0,0,0,0,0,0,0-.01Z"/>
    <path class="cls-4" d="M50.91,39.82s0,0,0,0c-.29-.2-.55-.4-.81-.61,.26,.21,.52,.41,.81,.61,0,0,0,0,0,0Z"/>
    <path class="cls-4" d="M48.63,37.8c.14,.16,.29,.32,.45,.48-.16-.16-.3-.32-.45-.48Z"/>
    <path class="cls-4" d="M49.32,38.53c.18,.17,.36,.33,.55,.5-.19-.16-.38-.33-.55-.5Z"/>
    <path class="cls-4" d="M48.14,37.21c.06,.08,.13,.17,.2,.25-.07-.08-.13-.17-.2-.25Z"/>
  </g>
  <path class="cls-1" d="M128.53,39.73l-9.21-31.33-5.29,5.69S96.16,3.02,75.19,.51l-19.11,26.82c23.9,3.23,42.95,9.18,42.95,9.18l-3.63,5.89,33.13-2.68Z"/>
  <path class="cls-6" d="M44.09,26.26s.05,0,.08,0c1.42-.04,2.9,.01,4.44,.18,0,0,.02,0,.03,0,1.12,.12,2.23,.24,3.34,.38,.27,.03,.55,.07,.82,.1,1.09,.13,2.18,.27,3.26,.42,0,0,.01,0,.02,0L75.19,.51c-.7-.08-1.41-.16-2.12-.22,0,0,0,0,0,0-.7-.06-1.4-.12-2.11-.16-.15,0-.31-.01-.46-.02-.56-.03-1.12-.06-1.69-.08-.69-.02-1.39-.03-2.09-.02-.04,0-.08,0-.11,0-4.76,.03-9.88,1.17-14.6,3.13-1.3,.54-2.56,1.14-3.78,1.8-.69,.37-1.37,.77-2.03,1.18-.4,.25-.78,.5-1.17,.76-2.03,1.37-3.88,2.91-5.41,4.6-.42,.46-.82,.92-1.18,1.4-10.33,13.63-16.61,26.84-17.45,28.17h.01c2.6-3.13,11.47-12.12,16.24-13.71,.11-.05,.21-.08,.31-.11,0,0,.01,0,.02,0,1.25-.34,2.57-.6,3.96-.76,.83-.1,1.68-.16,2.55-.19Z"/>
  <path class="cls-7" d="M96.38,40.81l2.64-4.29c-36.01-18.05-54.98-14.81-65.32-8.68-12.49,7.41-17.18,17.47-12.95,31.39,4.82,15.84,35.31,21.82,47.63,26.14,10.75,3.77,17.83,15.14,11.33,24.65-6.02,8.8-19.17,10-33.92,5.46-18.41-5.66-33.08-15.16-33.08-15.16l-3.96,5.06L3,73.32l-3,8,6.77,34.06,4.96-5.06c18.07,10.55,41.61,17.98,56.43,17.1,17.68-1.05,28.16-20.56,22.54-34.39-7.2-17.71-27.53-19.26-45.85-26.13-2.54-.95-4.7-2.02-6.56-3.16-15.05-9.25-8.61-23.71,6.52-27.48,.79-.2,1.59-.35,2.4-.49,20.57-3.53,48.08,10.58,48.08,10.58l-.88,7.06,33.13-3.68,1-10-32.15,1.08Z"/>
  <path class="cls-3" d="M21.27,40.35s17.67-31.24,77.76-3.83l1.73-2.21s-31.23-14.68-54.28-11.32c-18.35,2.67-25.21,17.36-25.21,17.36Z"/>
  <path class="cls-3" d="M91.59,102.67s6.2-21.02-26.02-29.13c-32.55-8.2-35.74-20.7-35.74-20.7,0,0-1.59,13.21,35.74,22.48,27.53,6.84,26.02,27.35,26.02,27.35Z"/>
  <path class="cls-3" d="M3,73.32l5.83,32.38,3.88-4.84s34.1,23.19,58.56,15.85c0,0-25.09,5.03-58.82-18.38l-2.54,3.37-5.55-25.83-1.36-2.55Z"/>
  <path class="cls-3" d="M95.4,43.4s15.59-1,33.13-3.68c0,0-22.2,.45-32.15,1.08l-.98,2.59Z"/>
</svg>